<svg xmlns="http://www.w3.org/2000/svg" width="305" height="400" viewBox="0 0 305 400">
    <path fill-opacity="0" stroke="#FED63F" d="M148.572 399c33.667 0 62.19-5.512 85.57-16.537 23.38-11.024 40.867-25.879 52.464-44.564C298.202 319.213 304 298.472 304 275.676c0-30.27-9.539-55.496-28.617-75.676-19.077-20.18-46.759-32.513-83.044-36.997h0l95.389-113.234V1H20.078v61.101H198.51l-89.217 105.947v49.89h35.912c28.803 0 50.219 5.139 64.247 15.416 14.028 10.277 21.041 24.57 21.041 42.883 0 18.311-7.388 32.793-22.163 43.443-14.776 10.651-35.07 15.976-60.881 15.976-21.696 0-42.738-3.456-63.125-10.37s-37.688-16.35-51.903-28.309h0L1 353.594c18.33 14.201 40.494 25.32 66.492 33.354C93.49 394.983 120.517 399 148.572 399z"/>
</svg>
