<svg xmlns="http://www.w3.org/2000/svg" xmlns:xlink="http://www.w3.org/1999/xlink" width="32" height="31" viewBox="0 0 32 31">
    <defs>
        <path id="prefix__a" d="M0 0L31.969 0 31.969 30.969 0 30.969z"/>
    </defs>
    <g fill="none" fill-rule="evenodd">
        <mask id="prefix__b" fill="#fff">
            <use xlink:href="#prefix__a"/>
        </mask>
        <path fill="#CCC" d="M21.027 9.62H19.2c-1.434 0-1.711.66-1.711 1.63v2.135h3.42l-.446 3.344h-2.974v8.583h-3.566V16.73h-2.981v-3.344h2.981v-2.467c0-2.863 1.805-4.421 4.441-4.421 1.263 0 2.348.09 2.664.131V9.62zM15.984 0C7.156 0 0 6.933 0 15.485v.007C0 24.04 7.153 30.97 15.976 30.97h.016c8.824 0 15.977-6.929 15.977-15.477v-.007C31.969 6.933 24.812 0 15.984 0z" mask="url(#prefix__b)"/>
    </g>
</svg>
