<?xml version="1.0" encoding="utf-8"?>
<!-- Generator: Adobe Illustrator 25.0.0, SVG Export Plug-In . SVG Version: 6.00 Build 0)  -->
<svg version="1.1" id="telegram" xmlns="http://www.w3.org/2000/svg" xmlns:xlink="http://www.w3.org/1999/xlink" x="0px" y="0px"
	 viewBox="0 0 32 32" style="enable-background:new 0 0 32 32;" xml:space="preserve">
<style type="text/css">
	.st0{clip-path:url(#SVGID_3_);}
	.st1{clip-path:url(#SVGID_4_);fill:none;}
</style>
<g>
	<g>
		<defs>
			<polygon id="SVGID_1_" points="1,1.5 2,1.5 1,2.5 			"/>
		</defs>
		<defs>
			<polygon id="SVGID_2_" points="-1,-0.5 -2,-0.5 -1,-1.5 			"/>
		</defs>
		<clipPath id="SVGID_3_">
			<use xlink:href="#SVGID_1_"  style="overflow:visible;"/>
		</clipPath>
		<clipPath id="SVGID_4_" class="st0">
			<use xlink:href="#SVGID_2_"  style="overflow:visible;"/>
		</clipPath>
		<path class="st1" d="M16,0C7.2,0,0,7.2,0,16s7.2,16,16,16s16-7.2,16-16S24.8,0,16,0z M23.8,9.9C23.7,11.4,21,22.4,21,22.4
			S20.8,23,20.2,23c-0.2,0-0.5,0-0.8-0.3c-0.6-0.5-2-1.5-3.4-2.5c-0.4,0.3-1.2,1-2,1.9c-1.2,1.2-1,0-1,0l0.4-3.8l0,0
			c0,0,0-0.1,0-0.1s6.9-6.1,7.1-6.8c0,0,0-0.1-0.1-0.1c-0.5,0.2-8.4,5.2-9.3,5.7c-0.1,0-0.2,0-0.2,0l-3.9-1.3c0,0-0.5-0.2-0.3-0.6
			c0-0.1,0.1-0.2,0.3-0.3c0.9-0.6,15.8-6,15.8-6s0.4-0.1,0.7,0c0.1,0,0.2,0.1,0.2,0.3c0,0.1,0,0.2,0,0.3C23.8,9.7,23.8,9.8,23.8,9.9
			z"/>
	</g>
</g>
</svg>
