<svg xmlns="http://www.w3.org/2000/svg" width="280" height="366" viewBox="0 0 280 366">
    <path fill-opacity="0" stroke="#FED63F" d="M279 365v-56.394H110.05l95.738-91.257c23.21-21.874 38.91-41.356 47.102-58.445 8.191-17.089 12.287-35.374 12.287-54.856 0-31.786-11.605-56.907-34.814-75.363C207.153 10.228 176.093 1 137.184 1c-29.353 0-55.89 5.212-79.611 15.637C33.85 27.06 14.993 41.672 1 60.47h0l46.59 35.888c19.454-24.95 47.442-37.426 83.962-37.426 21.845 0 38.398 4.444 49.662 13.33 11.263 8.886 16.895 21.703 16.895 38.45 0 11.28-2.816 22.644-8.448 34.094-5.632 11.45-16.468 24.864-32.51 40.245h0L14.823 320.397V365H279z"/>
</svg>
