<svg width="19" height="19" viewBox="0 0 19 19" fill="none" xmlns="http://www.w3.org/2000/svg">
<path d="M16.1951 3.30506C14.4041 1.89167 12.0264 1.11327 9.49997 1.11327C6.97352 1.11327 4.59583 1.89167 2.80492 3.30506C0.996136 4.73253 0 6.63587 0 8.66444C0 9.88472 0.374146 11.0967 1.08194 12.1694C1.73516 13.1593 2.67263 14.034 3.79988 14.7069C3.74786 15.0712 3.46776 16.1374 1.96253 17.408C1.88507 17.4734 1.85348 17.5784 1.88205 17.6757C1.91061 17.773 1.99391 17.8442 2.09441 17.8574C2.10352 17.8586 2.32244 17.8867 2.71143 17.8867C3.82061 17.8867 6.0873 17.6665 8.85827 16.1986C9.07212 16.2099 9.28766 16.2157 9.49997 16.2157C12.0264 16.2157 14.4041 15.4373 16.1951 14.0239C18.0039 12.5964 19 10.6931 19 8.66444C19 6.63587 18.0039 4.73253 16.1951 3.30506Z" fill="#7C7C7C"/>
</svg>
