<svg width="8" height="10" viewBox="0 0 8 10" fill="none" xmlns="http://www.w3.org/2000/svg">
<path d="M7.08333 8.33333H2.5V2.5H7.08333V8.33333ZM7.08333 1.66667H2.5C2.27899 1.66667 2.06702 1.75446 1.91074 1.91074C1.75446 2.06702 1.66667 2.27899 1.66667 2.5V8.33333C1.66667 8.55435 1.75446 8.76631 1.91074 8.92259C2.06702 9.07887 2.27899 9.16667 2.5 9.16667H7.08333C7.30435 9.16667 7.51631 9.07887 7.67259 8.92259C7.82887 8.76631 7.91667 8.55435 7.91667 8.33333V2.5C7.91667 2.27899 7.82887 2.06702 7.67259 1.91074C7.51631 1.75446 7.30435 1.66667 7.08333 1.66667ZM5.83333 0H0.833333C0.61232 0 0.400358 0.0877974 0.244078 0.244078C0.0877973 0.400358 0 0.61232 0 0.833333V6.66667H0.833333V0.833333H5.83333V0Z" fill="#3F76FE"/>
</svg>
