<svg width="21" height="21" viewBox="0 0 21 21" fill="none" xmlns="http://www.w3.org/2000/svg">
<path d="M10.5014 13.5625C9.68922 13.5625 8.91026 13.2398 8.33593 12.6655C7.7616 12.0912 7.43895 11.3122 7.43895 10.5C7.43895 9.68777 7.7616 8.90882 8.33593 8.33449C8.91026 7.76016 9.68922 7.4375 10.5014 7.4375C11.3137 7.4375 12.0926 7.76016 12.667 8.33449C13.2413 8.90882 13.5639 9.68777 13.5639 10.5C13.5639 11.3122 13.2413 12.0912 12.667 12.6655C12.0926 13.2398 11.3137 13.5625 10.5014 13.5625ZM17.0027 11.3488C17.0377 11.0688 17.0639 10.7887 17.0639 10.5C17.0639 10.2113 17.0377 9.9225 17.0027 9.625L18.8489 8.19875C19.0152 8.0675 19.0589 7.83125 18.9539 7.63875L17.2039 4.61125C17.0989 4.41875 16.8627 4.34 16.6702 4.41875L14.4914 5.29375C14.0364 4.9525 13.5639 4.655 13.0127 4.43625L12.6889 2.1175C12.6539 1.9075 12.4702 1.75 12.2514 1.75H8.75145C8.5327 1.75 8.34895 1.9075 8.31395 2.1175L7.9902 4.43625C7.43895 4.655 6.96645 4.9525 6.51145 5.29375L4.3327 4.41875C4.1402 4.34 3.90395 4.41875 3.79895 4.61125L2.04895 7.63875C1.9352 7.83125 1.9877 8.0675 2.15395 8.19875L4.0002 9.625C3.9652 9.9225 3.93895 10.2113 3.93895 10.5C3.93895 10.7887 3.9652 11.0688 4.0002 11.3488L2.15395 12.8013C1.9877 12.9325 1.9352 13.1688 2.04895 13.3612L3.79895 16.3888C3.90395 16.5812 4.1402 16.6513 4.3327 16.5813L6.51145 15.6975C6.96645 16.0475 7.43895 16.345 7.9902 16.5638L8.31395 18.8825C8.34895 19.0925 8.5327 19.25 8.75145 19.25H12.2514C12.4702 19.25 12.6539 19.0925 12.6889 18.8825L13.0127 16.5638C13.5639 16.3363 14.0364 16.0475 14.4914 15.6975L16.6702 16.5813C16.8627 16.6513 17.0989 16.5812 17.2039 16.3888L18.9539 13.3612C19.0589 13.1688 19.0152 12.9325 18.8489 12.8013L17.0027 11.3488Z" fill="#7C7C7C"/>
</svg>
