<svg version="1.1" xmlns="http://www.w3.org/2000/svg" xmlns:xlink="http://www.w3.org/1999/xlink" x="0px" y="0px"
	 viewBox="0 0 32 32" style="enable-background:new 0 0 32 32;" xml:space="preserve">
<g id="Background">
</g>
<g id="Graphic_Elements">
	<g>
		<circle class="st0" cx="20.02" cy="19.18" r="16"/>
		<path class="st1" d="M27.81,12.68c-0.06-0.18-0.13-0.23-0.25-0.27c-0.25-0.09-0.67,0.05-0.67,0.05s-14.95,5.37-15.81,5.97
			c-0.18,0.13-0.25,0.2-0.28,0.29c-0.15,0.42,0.31,0.61,0.31,0.61l3.85,1.26c0,0,0.14,0.02,0.2-0.01c0.88-0.55,8.82-5.57,9.28-5.74
			c0.07-0.02,0.13,0,0.11,0.05c-0.18,0.64-7.08,6.78-7.08,6.78s-0.03,0.03-0.04,0.07l-0.01-0.01l-0.36,3.82c0,0-0.15,1.17,1.02,0
			c0.83-0.83,1.63-1.52,2.03-1.85c1.33,0.91,2.75,1.93,3.37,2.46c0.31,0.27,0.57,0.31,0.78,0.3c0.58-0.02,0.75-0.66,0.75-0.66
			s2.72-10.97,2.82-12.44c0.01-0.14,0.02-0.24,0.02-0.33C27.85,12.88,27.84,12.74,27.81,12.68z"/>
	</g>
</g>
</svg>
