<?xml version="1.0" encoding="utf-8"?><svg xmlns="http://www.w3.org/2000/svg" xmlns:xlink="http://www.w3.org/1999/xlink"><symbol viewBox="0 0 32 31" id="facebook" xmlns="http://www.w3.org/2000/svg"><defs><path id="aa" d="M0 0h31.969v30.969H0z"/></defs><g fill-rule="evenodd"><mask id="ab"><use xlink:href="#aa"/></mask><path d="M21.027 9.62H19.2c-1.434 0-1.711.66-1.711 1.63v2.135h3.42l-.446 3.344h-2.974v8.583h-3.566V16.73h-2.981v-3.344h2.981v-2.467c0-2.863 1.805-4.421 4.441-4.421 1.263 0 2.348.09 2.664.131V9.62zM15.984 0C7.156 0 0 6.933 0 15.485v.007C0 24.04 7.153 30.97 15.976 30.97h.016c8.824 0 15.977-6.929 15.977-15.477v-.007C31.969 6.933 24.812 0 15.984 0z" mask="url(#ab)"/></g></symbol><symbol viewBox="0 0 32 32" id="instagram" xmlns="http://www.w3.org/2000/svg"><defs><path id="ba" d="M0 .031h31.968v31.518H0z"/></defs><g fill-rule="evenodd"><path d="M15.984 13.19c-1.509 0-2.732 1.206-2.732 2.693 0 1.488 1.223 2.694 2.732 2.694 1.51 0 2.732-1.206 2.732-2.694 0-1.487-1.223-2.693-2.732-2.693"/><g transform="translate(0 .093)"><mask id="bb"><use xlink:href="#ba"/></mask><path d="M24.132 19.122c-.04.86-.179 1.448-.381 1.962a3.96 3.96 0 0 1-.946 1.431 4.01 4.01 0 0 1-1.452.932c-.52.2-1.117.336-1.99.376-.873.039-1.153.048-3.379.048s-2.505-.009-3.38-.048c-.872-.04-1.467-.176-1.989-.376a4.024 4.024 0 0 1-1.452-.932c-.455-.45-.736-.9-.945-1.431-.203-.514-.341-1.102-.381-1.962-.04-.862-.05-1.137-.05-3.332s.01-2.47.05-3.332c.04-.86.178-1.447.38-1.961.21-.532.49-.983.946-1.432a4.037 4.037 0 0 1 1.452-.932c.522-.2 1.117-.336 1.99-.375.874-.04 1.153-.05 3.38-.05 2.225 0 2.505.01 3.379.05.872.039 1.468.176 1.99.375.538.207.995.483 1.451.932.456.45.736.9.946 1.432.202.514.34 1.101.38 1.961.04.862.05 1.137.05 3.332s-.01 2.47-.05 3.332M15.985.032C7.156.031 0 7.086 0 15.79v.008c0 8.699 7.153 15.751 15.977 15.751h.015c8.824 0 15.976-7.052 15.976-15.751v-.008c0-8.703-7.156-15.759-15.984-15.759" mask="url(#bb)"/></g><path d="M20.36 12.54a.977.977 0 0 1-.984-.97c0-.536.44-.97.984-.97.543 0 .983.434.983.97 0 .535-.44.97-.983.97m-4.376 7.493c-2.324 0-4.209-1.858-4.209-4.15 0-2.291 1.885-4.15 4.21-4.15 2.324 0 4.208 1.859 4.208 4.15 0 2.292-1.884 4.15-4.209 4.15m6.39-8.916a2.505 2.505 0 0 0-.613-.929 2.532 2.532 0 0 0-.943-.604c-.288-.111-.722-.243-1.522-.279-.864-.039-1.123-.047-3.312-.047-2.188 0-2.448.008-3.312.047-.8.036-1.233.168-1.522.279a2.528 2.528 0 0 0-.942.604 2.503 2.503 0 0 0-.614.93c-.112.284-.245.712-.282 1.5-.04.852-.047 1.108-.047 3.265 0 2.158.008 2.414.047 3.266.037.788.17 1.216.282 1.5.15.378.327.647.614.93.286.282.56.458.942.604.289.11.723.242 1.522.278.864.04 1.123.048 3.312.048s2.448-.009 3.312-.048c.8-.036 1.234-.167 1.522-.278.383-.146.656-.322.943-.604a2.5 2.5 0 0 0 .613-.93c.112-.284.246-.712.282-1.5.04-.852.048-1.108.048-3.266 0-2.157-.008-2.413-.048-3.265-.036-.788-.17-1.216-.282-1.5"/></g></symbol><symbol viewBox="0 0 98 121" id="ruble-icon" xmlns="http://www.w3.org/2000/svg"><path d="M38.4 120V99.09h27.88V83.45H38.4V69.34h15.64c28.22 0 43.35-13.43 43.35-33.83C97.39 15.96 86.51.66 51.32.66 42.99.66 24.29 1 17.66 1v52.7H1v15.64h16.66v14.11H1v15.64h16.66V120H38.4zm14.96-66.3H38.4V20.55c5.61-.17 10.88-.34 15.13-.34 14.11 0 21.76 4.76 21.76 17.17 0 12.07-9.69 16.32-21.93 16.32z"/></symbol><symbol viewBox="0 0 32 32" id="youtube" xmlns="http://www.w3.org/2000/svg"><defs><path id="da" d="M0 .031h31.969v31.518H0z"/></defs><g fill-rule="evenodd"><path d="M14.279 18.389l4.659-2.408-4.659-2.408z"/><g transform="translate(0 .093)"><mask id="db"><use xlink:href="#da"/></mask><path d="M24.628 20.034a2.214 2.214 0 0 1-1.904 1.707c-2.185.24-4.396.242-6.598.24-2.201.002-4.413 0-6.597-.24a2.214 2.214 0 0 1-1.905-1.707c-.306-1.316-.306-2.751-.306-4.106s.003-2.79.31-4.106a2.213 2.213 0 0 1 1.904-1.707c2.185-.24 4.396-.242 6.598-.24 2.201-.002 4.413 0 6.597.24a2.214 2.214 0 0 1 1.905 1.707c.306 1.315.305 2.751.305 4.106s-.002 2.79-.309 4.106M15.984.031C7.156.031 0 7.087 0 15.79v.008c0 8.7 7.153 15.751 15.976 15.751h.016c8.824 0 15.977-7.052 15.977-15.751v-.008c0-8.703-7.157-15.759-15.985-15.759" mask="url(#db)"/></g></g></symbol></svg>