<svg xmlns="http://www.w3.org/2000/svg" xmlns:xlink="http://www.w3.org/1999/xlink" width="32" height="32" viewBox="0 0 32 32">
    <defs>
        <path id="prefix__a" d="M0 0.031L31.968 0.031 31.968 31.549 0 31.549z"/>
    </defs>
    <g fill="none" fill-rule="evenodd">
        <path fill="#CCC" d="M15.984 13.19c-1.509 0-2.732 1.206-2.732 2.693 0 1.488 1.223 2.694 2.732 2.694 1.51 0 2.732-1.206 2.732-2.694 0-1.487-1.223-2.693-2.732-2.693"/>
        <g transform="translate(0 .093)">
            <mask id="prefix__b" fill="#fff">
                <use xlink:href="#prefix__a"/>
            </mask>
            <path fill="#CCC" d="M24.132 19.122c-.04.86-.179 1.448-.381 1.962-.21.531-.49.982-.946 1.431-.456.45-.913.726-1.452.932-.52.2-1.117.336-1.99.376-.873.039-1.153.048-3.379.048s-2.505-.009-3.38-.048c-.872-.04-1.467-.176-1.989-.376-.539-.206-.996-.483-1.452-.932-.455-.45-.736-.9-.945-1.431-.203-.514-.341-1.102-.381-1.962-.04-.862-.05-1.137-.05-3.332s.01-2.47.05-3.332c.04-.86.178-1.447.38-1.961.21-.532.49-.983.946-1.432.456-.449.913-.725 1.452-.932.522-.2 1.117-.336 1.99-.375.874-.04 1.153-.05 3.38-.05 2.225 0 2.505.01 3.379.05.872.039 1.468.176 1.99.375.538.207.995.483 1.451.932.456.45.736.9.946 1.432.202.514.34 1.101.38 1.961.04.862.05 1.137.05 3.332s-.01 2.47-.05 3.332M15.985.032C7.156.031 0 7.086 0 15.79v.008c0 8.699 7.153 15.751 15.977 15.751h.015c8.824 0 15.976-7.052 15.976-15.751v-.008c0-8.703-7.156-15.759-15.984-15.759" mask="url(#prefix__b)"/>
        </g>
        <path fill="#CCC" d="M20.36 12.54c-.544 0-.984-.435-.984-.97 0-.536.44-.97.984-.97.543 0 .983.434.983.97 0 .535-.44.97-.983.97m-4.376 7.493c-2.324 0-4.209-1.858-4.209-4.15 0-2.291 1.885-4.15 4.21-4.15 2.324 0 4.208 1.859 4.208 4.15 0 2.292-1.884 4.15-4.209 4.15m6.39-8.916c-.149-.377-.326-.646-.613-.929-.287-.283-.56-.458-.943-.604-.288-.111-.722-.243-1.522-.279-.864-.039-1.123-.047-3.312-.047-2.188 0-2.448.008-3.312.047-.8.036-1.233.168-1.522.279-.382.146-.656.321-.942.604-.287.283-.465.552-.614.93-.112.284-.245.712-.282 1.5-.04.852-.047 1.108-.047 3.265 0 2.158.008 2.414.047 3.266.037.788.17 1.216.282 1.5.15.378.327.647.614.93.286.282.56.458.942.604.289.11.723.242 1.522.278.864.04 1.123.048 3.312.048s2.448-.009 3.312-.048c.8-.036 1.234-.167 1.522-.278.383-.146.656-.322.943-.604.287-.283.464-.552.613-.93.112-.284.246-.712.282-1.5.04-.852.048-1.108.048-3.266 0-2.157-.008-2.413-.048-3.265-.036-.788-.17-1.216-.282-1.5"/>
    </g>
</svg>
