<svg xmlns="http://www.w3.org/2000/svg" xmlns:xlink="http://www.w3.org/1999/xlink" width="32" height="32" viewBox="0 0 32 32">
    <defs>
        <path id="prefix__a" d="M0 0.031L31.969 0.031 31.969 31.549 0 31.549z"/>
    </defs>
    <g fill="none" fill-rule="evenodd">
        <path fill="#CCC" d="M14.279 18.389L18.938 15.981 14.279 13.573z"/>
        <g transform="translate(0 .093)">
            <mask id="prefix__b" fill="#fff">
                <use xlink:href="#prefix__a"/>
            </mask>
            <path fill="#CCC" d="M24.628 20.034c-.215.924-.982 1.605-1.904 1.707-2.185.24-4.396.242-6.598.24-2.201.002-4.413 0-6.597-.24-.923-.102-1.69-.783-1.905-1.707-.306-1.316-.306-2.751-.306-4.106s.003-2.79.31-4.106c.215-.924.982-1.606 1.904-1.707 2.185-.24 4.396-.242 6.598-.24 2.201-.002 4.413 0 6.597.24.923.101 1.689.783 1.905 1.707.306 1.315.305 2.751.305 4.106s-.002 2.79-.309 4.106M15.984.031C7.156.031 0 7.087 0 15.79v.008c0 8.7 7.153 15.751 15.976 15.751h.016c8.824 0 15.977-7.052 15.977-15.751v-.008c0-8.703-7.157-15.759-15.985-15.759" mask="url(#prefix__b)"/>
        </g>
    </g>
</svg>
